{"asset":{"version":"2.0","generator":"VECTARY"},"nodes":[{"translation":[0,0,0],"scale":[0.001,0.001,0.001],"rotation":[-0.7071067811865475,0,0,0.7071067811865476],"name":"Sphere","mesh":0},{"translation":[-1.2435363063761884,0.08007617439828181,-0.39796425125673324],"scale":[1,1,1],"rotation":[-0.013254937062744061,-0.7644994249135714,-0.015727846970105982,0.6442961824968125],"name":"Camera","camera":0}],"materials":[{"pbrMetallicRoughness":{"baseColorFactor":[1,1,1,1],"baseColorTexture":{"index":0,"extensions":{"KHR_texture_transform":{"offset":[0,0],"scale":[1,1],"rotation":0}},"texCoord":0},"metallicFactor":0.02,"roughnessFactor":0.2},"name":"Sphere material","emissiveFactor":[0,0,0],"alphaMode":"BLEND","doubleSided":false}],"textures":[{"sampler":0,"source":0}],"images":[{"uri":"cb0c9f3a-5f9f-41d9-b2bb-57c4e3b2a427.png","mimeType":"image/png"}],"samplers":[{"wrapS":10497,"wrapT":10497}],"meshes":[{"primitives":[{"mode":4,"attributes":{"POSITION":1,"NORMAL":2,"TEXCOORD_0":3},"material":0,"indices":0}]}],"accessors":[{"bufferView":0,"byteOffset":0,"componentType":5125,"count":59400,"type":"SCALAR"},{"bufferView":1,"byteOffset":0,"componentType":5126,"count":10199,"max":[150,150,300],"min":[-150,-150,0],"type":"VEC3"},{"bufferView":2,"byteOffset":0,"componentType":5126,"count":10199,"type":"VEC3"},{"bufferView":3,"byteOffset":0,"componentType":5126,"count":10199,"type":"VEC2"}],"bufferViews":[{"buffer":0,"byteOffset":0,"byteLength":237600,"target":34963},{"buffer":0,"byteOffset":237600,"byteLength":122388,"target":34962},{"buffer":0,"byteOffset":359988,"byteLength":122388,"target":34962},{"buffer":0,"byteOffset":482376,"byteLength":81592,"target":34962}],"cameras":[{"name":"Camera","type":"perspective","extras":{"targetDistance":1.3463534876187901},"perspective":{"aspectRatio":1.5508982035928143,"yfov":0.6108652381980153,"zfar":71.12854538405243,"znear":0.006247403342047486}}],"scene":0,"scenes":[{"nodes":[0,1],"name":"botticelli sphere"}],"extensionsUsed":["KHR_texture_transform"],"buffers":[{"byteLength":563968,"uri":"botticellisphere.bin"}]}